<?xml version="1.0" encoding="UTF-8"?>
<svg id="Layer_2" data-name="Layer 2" xmlns="http://www.w3.org/2000/svg" viewBox="0 0 126.17 71.88">
  <defs>
    <style>
      .cls-1 {
        fill: #d1d3fd;
        stroke-width: 0px;
      }
    </style>
  </defs>
  <g id="Black_M_layer" data-name="Black M layer">
    <g>
      <path class="cls-1" d="M25.93,25.51c.09,4.31.31,15.21.37,19.37.02,2.13.16,4.33-.23,6.53-.53,4.36-4.49,9.44-9.39,7.7-4.61-1.7-5.93-7.08-6-11.44,0,0,.77.76.77.76l-10.56.33.83-.85c.08,2.26.19,4.54.72,6.73,3.66,18.58,26.24,21.09,32.64,2.83,1.49-4.23,1.55-9,1.51-13.46,0,0,.05-13.92.05-13.92.03-9.28.18-18.56.26-27.85,0,0,.6.6.6.6-6.1-.05-12.21-.13-18.31-.25-6.1-.11-12.21-.2-18.31-.35,12.21-.28,24.42-.49,36.63-.6,0,0,.6,0,.6,0v.61c.09,9.28.23,18.56.26,27.85l.05,13.92c-.02,2.09.06,4.97-.12,7.04-.55,7.14-3.7,14.62-10.12,18.38-6.35,3.9-15.05,3.05-20.55-1.96C2.07,62.63,0,55.04.02,47.91c0,0-.02-.84-.02-.84,0,0,.85-.01.85-.01l10.56-.14s.77-.01.77-.01c-.11,4.05.74,9.37,4.9,11.03,4.24,1.51,7.4-2.93,8.03-6.71.44-2.04.39-4.18.44-6.34.06-4.12.28-15.12.37-19.37h0Z"/>
      <g>
        <path class="cls-1" d="M83.27,26.99c-5.6-7.99-11-16.12-16.33-24.29,0,0,1.56-.28,1.56-.28-1.14,5.74-2.32,11.48-3.53,17.2-3.65,17.18-7.49,34.33-11.96,51.32,3.83-23.11,8.66-46.03,13.82-68.88,0,0,.47-2.06.47-2.06,5.44,8.92,10.83,17.89,15.97,26.99h0Z"/>
        <path class="cls-1" d="M126.17,70.82c-6.28-22.56-11.57-45.39-16.53-68.28,0,0,1.55.25,1.55.25-1.89,3.01-5.74,9.01-7.67,12-2.52,3.84-5.25,8.08-7.92,11.84,4.43-7.92,9.52-16.9,14.14-24.72,0,0,1.05-1.8,1.05-1.8,0,0,.5,2.05.5,2.05,5.51,22.76,10.69,45.61,14.88,68.65h0Z"/>
        <path class="cls-1" d="M89.51,49.28c2.99-.19,5.98-.28,8.97-.42,0,0-.34.66-.34.66-1.85-2.33-3.63-4.71-5.45-7.06,0,0,.47-.44.47-.44,2.17-2.04,4.21-4.35,4.42-7.35.28-4.63-3.14-9.8-8.07-9.76,0,0,0-2,0-2h.17s0,2,0,2c-4.93-.03-8.34,5.13-8.07,9.76.21,2.99,2.25,5.3,4.42,7.35,0,0,.47.44.47.44l-.37.48c-1.69,2.2-3.36,4.41-5.08,6.58,0,0-.34-.67-.34-.67,2.99.13,5.98.23,8.97.42-2.99.19-5.98.29-8.97.42l-.8.04c1.66-2.56,3.39-5.08,5.1-7.61,0,0,.1.92.1.92-2.42-2.05-4.98-4.82-5.25-8.25-.53-5.73,3.72-11.89,9.82-11.9,0,0,0,2,0,2,0,0-.17,0-.17,0v-2c2.37.01,4.67,1.02,6.34,2.6,2.52,2.41,3.71,5.86,3.48,9.29-.27,3.43-2.83,6.19-5.25,8.25,0,0,.1-.92.1-.92,1.55,2.3,3.12,4.58,4.64,6.9l.46.7c-3.25-.15-6.51-.25-9.76-.45h0Z"/>
        <path class="cls-1" d="M70.82,34.59c-1.91,12.22-4.51,24.41-7.75,36.35,1.91-12.23,4.51-24.41,7.75-36.35h0Z"/>
        <path class="cls-1" d="M108.26,34.47c3.24,11.94,5.84,24.13,7.75,36.35-3.24-11.94-5.84-24.13-7.75-36.35h0Z"/>
      </g>
    </g>
  </g>
</svg>